#N canvas 709 347 433 353 12;
#X declare -path lib;
#X obj 140 60 bng 15 250 50 0 empty empty empty 17 7 0 10 #fcfcfc #000000
#000000;
#X obj 193 60 hradio 15 0 0 3 empty empty empty 0 -8 0 10 #fcfcfc #000000
#000000 0;
#N canvas 539 416 508 397 banks 0;
#X msg 20 100 64;
#X obj 20 130 until;
#X obj 20 161 f;
#X obj 50 161 + 1;
#X obj 20 74 t b b;
#X msg 70 100 0;
#X obj 20 219 div 8;
#X obj 80 219 mod 8;
#X obj 20 277 pack f f;
#X obj 20 190 t f f f;
#X msg 20 306 pad \$2 \$1 7;
#X obj 190 74 sel 0 1 2;
#X msg 190 103 33 41;
#X obj 222 200 unpack f f f f;
#X obj 20 248 expr if($f1<4 \, if($f2<4 \, $f3 \, $f4) \, if($f1<6
\, $f5 \, $f6)+($f2>=4)*8), f 67;
#X obj 190 161 t b a;
#X obj 360 50 loadbang;
#X msg 240 103 41 60;
#X msg 290 103 60 13;
#X obj 360 79 t b b;
#X msg 392 110 0;
#X obj 392 140 value bank;
#X obj 300 140 value bank;
#X obj 440 74 t b f;
#X obj 300 169 t f f;
#X obj 300 280 sel 0 1 2;
#X msg 300 309 0 1;
#X msg 340 309 1 1;
#X msg 380 309 1 0;
#X msg 300 338 banks 0 0 \$1 \$2;
#X obj 300 10 inlet;
#X obj 440 10 inlet;
#X obj 20 370 outlet;
#X msg 190 132 \$1 \$2 52 37;
#X connect 0 0 1 0;
#X connect 1 0 2 0;
#X connect 2 0 3 0;
#X connect 2 0 9 0;
#X connect 3 0 2 1;
#X connect 4 0 0 0;
#X connect 4 1 5 0;
#X connect 5 0 2 1;
#X connect 6 0 14 0;
#X connect 7 0 14 1;
#X connect 8 0 10 0;
#X connect 9 0 6 0;
#X connect 9 1 7 0;
#X connect 9 2 8 1;
#X connect 10 0 32 0;
#X connect 11 0 12 0;
#X connect 11 1 17 0;
#X connect 11 2 18 0;
#X connect 12 0 33 0;
#X connect 13 0 14 2;
#X connect 13 1 14 3;
#X connect 13 2 14 4;
#X connect 13 3 14 5;
#X connect 14 0 8 0;
#X connect 15 0 4 0;
#X connect 15 1 13 0;
#X connect 16 0 19 0;
#X connect 17 0 33 0;
#X connect 18 0 33 0;
#X connect 19 0 22 0;
#X connect 19 1 20 0;
#X connect 20 0 21 0;
#X connect 22 0 24 0;
#X connect 23 0 22 0;
#X connect 23 1 21 0;
#X connect 24 0 11 0;
#X connect 24 1 25 0;
#X connect 25 0 26 0;
#X connect 25 1 27 0;
#X connect 25 2 28 0;
#X connect 26 0 29 0;
#X connect 27 0 29 0;
#X connect 28 0 29 0;
#X connect 29 0 32 0;
#X connect 30 0 22 0;
#X connect 31 0 23 0;
#X connect 33 0 15 0;
#X restore 140 90 pd banks;
#X obj 42 21 bng 15 250 50 0 empty empty empty 17 7 0 10 #fcfcfc #000000
#000000;
#X obj 312 291 pd-remote;
#X msg 312 261 pdluax reload;
#X obj 50 90 midi-input;
#X obj 42 291 midi-output;
#X obj 42 204 t a a;
#N canvas 997 540 450 300 out 0;
#X obj 119 110 print;
#X obj 10 30 inlet;
#X obj 40 240 route stop solo mute rec sel note sysex;
#X obj 10 80 route note sysex;
#X text 10 160 the messages that may be output by the external: stop
to stop clips in a track \, track controls (solo \, mute \, rec arm
\, and select) \, and note and sysex which should be passed on to midi-output
;
#X text 140 80 print everything but note and sysex;
#X connect 1 0 3 0;
#X connect 3 2 0 0;
#X restore 142 231 pd out;
#X obj 42 175 apcmini;
#X obj 152 291 declare -path lib;
#N canvas 541 455 948 300 control 0;
#X obj 40 109 sel 0;
#X msg 93 110 1;
#X msg 130 110 -1;
#N canvas 842 518 237 259 change-bank 0;
#X obj 20 73 t b f;
#X obj 20 102 value bank;
#X obj 20 131 +;
#X obj 20 30 inlet;
#X obj 20 210 outlet;
#X obj 20 160 mod 3;
#X connect 0 0 1 0;
#X connect 0 1 2 1;
#X connect 1 0 2 0;
#X connect 2 0 5 0;
#X connect 3 0 0 0;
#X connect 5 0 4 0;
#X restore 93 140 pd change-bank;
#N canvas 728 460 488 300 pad 0;
#X floatatom 10 139 5 0 0 0 - - -, f 5;
#X obj 10 110 expr ($f1%8>=4)*12+int($f1/8)*4+($f1%8)+ bank*16;
#X obj 10 40 unpack f f;
#X floatatom 77 139 5 0 0 0 - - -, f 5;
#X obj 10 167 pack f f;
#X msg 10 196 note \$1 \$2 26;
#X obj 10 10 inlet;
#X obj 10 270 outlet;
#X obj 10 69 moses 32;
#X floatatom 170 169 5 0 0 0 - - -, f 5;
#X floatatom 237 169 5 0 0 0 - - -, f 5;
#X obj 170 197 pack f f;
#X obj 170 70 - 32;
#X msg 170 226 ctl \$2 \$1 32;
#X obj 170 140 expr ($f1%8>=4)*12+int($f1/8)*4+($f1%8)+32;
#X connect 0 0 4 0;
#X connect 1 0 0 0;
#X connect 2 0 8 0;
#X connect 2 1 3 0;
#X connect 2 1 10 0;
#X connect 3 0 4 1;
#X connect 4 0 5 0;
#X connect 5 0 7 0;
#X connect 6 0 2 0;
#X connect 8 0 1 0;
#X connect 8 1 12 0;
#X connect 9 0 11 0;
#X connect 10 0 11 1;
#X connect 11 0 13 0;
#X connect 12 0 14 0;
#X connect 13 0 7 0;
#X connect 14 0 9 0;
#X restore 210 140 pd pad;
#N canvas 846 359 450 415 fader 0;
#X msg 40 111 0;
#X msg 80 111 1;
#X msg 120 111 2;
#X msg 160 111 3;
#X obj 156 191 unpack f f;
#X obj 40 220 expr $f1*9+21+$f2;
#X floatatom 40 249 5 0 0 0 - - -, f 5;
#X obj 40 277 pack f f;
#X msg 40 306 ctl \$2 \$1 17;
#X obj 40 80 t b a;
#X obj 90 80 t b a;
#X obj 140 80 t b a;
#X obj 190 80 t b a;
#X obj 13 26 inlet;
#X obj 63 26 inlet;
#X obj 113 26 inlet;
#X obj 163 26 inlet;
#X obj 13 379 outlet;
#X connect 0 0 5 0;
#X connect 1 0 5 0;
#X connect 2 0 5 0;
#X connect 3 0 5 0;
#X connect 4 0 5 1;
#X connect 4 1 7 1;
#X connect 5 0 6 0;
#X connect 6 0 7 0;
#X connect 7 0 8 0;
#X connect 8 0 17 0;
#X connect 9 0 0 0;
#X connect 9 1 4 0;
#X connect 10 0 1 0;
#X connect 10 1 4 0;
#X connect 11 0 2 0;
#X connect 11 1 4 0;
#X connect 12 0 3 0;
#X connect 12 1 4 0;
#X connect 13 0 9 0;
#X connect 14 0 10 0;
#X connect 15 0 11 0;
#X connect 16 0 12 0;
#X restore 270 140 pd fader;
#X obj 13 26 inlet;
#X obj 13 213 outlet;
#X obj 69 213 outlet;
#X obj 125 213 outlet;
#X obj 185 213 outlet;
#N canvas 366 221 450 300 solo 0;
#X obj 20 70 sel 0 1 2 3 4 5 6 7;
#X obj 20 100 solo 0;
#X obj 20 30 inlet;
#X obj 20 180 outlet;
#X obj 76 180 outlet;
#X obj 69 100 solo 1;
#X obj 118 100 solo 2;
#X obj 167 100 solo 3;
#X obj 216 100 solo 4;
#X obj 265 100 solo 5;
#X obj 314 100 solo 6;
#X obj 363 100 solo 7;
#X connect 0 0 1 0;
#X connect 0 1 5 0;
#X connect 0 2 6 0;
#X connect 0 3 7 0;
#X connect 0 4 8 0;
#X connect 0 5 9 0;
#X connect 0 6 10 0;
#X connect 0 7 11 0;
#X connect 1 0 3 0;
#X connect 1 1 4 0;
#X connect 2 0 0 0;
#X connect 5 0 3 0;
#X connect 5 1 4 0;
#X connect 6 0 3 0;
#X connect 6 1 4 0;
#X connect 7 0 3 0;
#X connect 7 1 4 0;
#X connect 8 0 3 0;
#X connect 8 1 4 0;
#X connect 9 0 3 0;
#X connect 9 1 4 0;
#X connect 10 0 3 0;
#X connect 10 1 4 0;
#X connect 11 0 3 0;
#X connect 11 1 4 0;
#X restore 344 140 pd solo;
#N canvas 366 221 450 300 mute 0;
#X obj 20 70 sel 0 1 2 3 4 5 6 7;
#X obj 20 30 inlet;
#X obj 20 180 outlet;
#X obj 76 180 outlet;
#X obj 20 100 mute 0;
#X obj 69 100 mute 1;
#X obj 118 100 mute 2;
#X obj 167 100 mute 3;
#X obj 216 100 mute 4;
#X obj 265 100 mute 5;
#X obj 314 100 mute 6;
#X obj 363 100 mute 7;
#X connect 0 0 4 0;
#X connect 0 1 5 0;
#X connect 0 2 6 0;
#X connect 0 3 7 0;
#X connect 0 4 8 0;
#X connect 0 5 9 0;
#X connect 0 6 10 0;
#X connect 0 7 11 0;
#X connect 1 0 0 0;
#X connect 4 0 2 0;
#X connect 4 1 3 0;
#X connect 5 0 2 0;
#X connect 5 1 3 0;
#X connect 6 0 2 0;
#X connect 6 1 3 0;
#X connect 7 0 2 0;
#X connect 7 1 3 0;
#X connect 8 0 2 0;
#X connect 8 1 3 0;
#X connect 9 0 2 0;
#X connect 9 1 3 0;
#X connect 10 0 2 0;
#X connect 10 1 3 0;
#X connect 11 0 2 0;
#X connect 11 1 3 0;
#X restore 417 140 pd mute;
#X obj 40 80 route mode bank-right bank-left pad vol pan send dev solo
mute scene, f 68;
#N canvas 0 0 450 300 scene 0;
#X obj 40 80 unpack f f;
#X obj 40 110 + 72;
#X obj 40 145 pack f f;
#X msg 40 174 note \$1 \$2 32;
#X obj 13 26 inlet;
#X obj 13 247 outlet;
#X connect 0 0 1 0;
#X connect 0 1 2 1;
#X connect 1 0 2 0;
#X connect 2 0 3 0;
#X connect 3 0 5 0;
#X connect 4 0 0 0;
#X restore 490 140 pd scene;
#X connect 0 0 7 0;
#X connect 1 0 3 0;
#X connect 2 0 3 0;
#X connect 3 0 8 0;
#X connect 4 0 9 0;
#X connect 5 0 9 0;
#X connect 6 0 13 0;
#X connect 11 0 10 0;
#X connect 11 1 9 0;
#X connect 12 0 10 0;
#X connect 12 1 9 0;
#X connect 13 0 0 0;
#X connect 13 1 1 0;
#X connect 13 2 2 0;
#X connect 13 3 4 0;
#X connect 13 4 5 0;
#X connect 13 5 5 1;
#X connect 13 6 5 2;
#X connect 13 7 5 3;
#X connect 13 8 11 0;
#X connect 13 9 12 0;
#X connect 13 10 14 0;
#X connect 14 0 9 0;
#X restore 140 20 pd control;
#X obj 220 110 bng 15 250 50 0 empty empty empty 17 7 0 10 #fcfcfc
#000000 #000000;
#N canvas 0 0 450 300 init 0;
#X msg 40 138 model;
#X obj 40 80 loadbang;
#X obj 40 109 del 500;
#X obj 13 26 inlet;
#X obj 13 211 outlet;
#X connect 0 0 4 0;
#X connect 1 0 2 0;
#X connect 2 0 0 0;
#X connect 3 0 0 0;
#X restore 220 130 pd init;
#X connect 0 0 2 0;
#X connect 1 0 2 1;
#X connect 2 0 10 0;
#X connect 3 0 10 0;
#X connect 5 0 4 0;
#X connect 6 0 10 0;
#X connect 8 0 7 0;
#X connect 8 1 9 0;
#X connect 8 1 12 0;
#X connect 10 0 8 0;
#X connect 12 0 0 0;
#X connect 12 1 1 0;
#X connect 12 2 7 0;
#X connect 12 3 10 0;
#X connect 13 0 14 0;
#X connect 14 0 10 0;
