#N canvas 850 355 450 300 12;
#X obj 40 80 tgl 15 0 empty empty empty 17 7 0 10 #fcfcfc #000000 #000000
0 1;
#X obj 40 104 f;
#X obj 130 131 * 127;
#X obj 13 26 inlet;
#X obj 13 235 outlet;
#X obj 69 235 outlet;
#X obj 270 90 f \$1;
#X obj 40 162 pack f f;
#X obj 130 162 pack f f;
#X obj 40 133 t f f b;
#X obj 270 119 t f f;
#X msg 130 191 ctl \$1 \$2 32;
#X msg 40 192 mute \$2 \$1;
#X obj 302 150 + 65;
#X connect 0 0 1 0;
#X connect 1 0 9 0;
#X connect 2 0 8 0;
#X connect 3 0 0 0;
#X connect 6 0 10 0;
#X connect 7 0 12 0;
#X connect 8 0 11 0;
#X connect 9 0 7 0;
#X connect 9 1 2 0;
#X connect 9 2 6 0;
#X connect 10 0 7 1;
#X connect 10 1 13 0;
#X connect 11 0 5 0;
#X connect 12 0 4 0;
#X connect 13 0 8 1;
