#N canvas 1204 296 450 300 12;
#X obj 40 100 route connect;
#X obj 40 20 inlet;
#X obj 135 20 inlet;
#X obj 40 240 outlet;
#X obj 135 240 outlet;
#X obj 180 121 f;
#X obj 216 121 + 1;
#X obj 329 123 list store;
#X obj 180 166 t f f f;
#X msg 396 154 0;
#X msg 180 190 get \$1 1;
#X obj 329 152 t s s;
#X symbolatom 260 240 18 0 0 0 - - -, f 18;
#X floatatom 350 220 5 0 0 0 - - -, f 5;
#X obj 260 220 bng 15 250 50 0 empty empty empty 17 7 0 10 #fcfcfc
#000000 #000000;
#X obj 280 220 bng 15 250 50 0 empty empty empty 17 7 0 10 #fcfcfc
#000000 #000000;
#X msg 180 90 0;
#X obj 210 240 bng 15 250 50 0 empty empty empty 17 7 0 10 #fcfcfc
#000000 #000000;
#X obj 40 53 mdnsbrowser Pd;
#X obj 128 160 t b a;
#X connect 0 0 3 0;
#X connect 0 1 19 0;
#X connect 1 0 18 0;
#X connect 2 0 18 1;
#X connect 5 0 8 0;
#X connect 6 0 5 1;
#X connect 7 0 11 0;
#X connect 7 1 9 0;
#X connect 8 0 10 0;
#X connect 8 1 13 0;
#X connect 8 2 6 0;
#X connect 9 0 5 1;
#X connect 10 0 7 0;
#X connect 11 0 18 0;
#X connect 11 1 12 0;
#X connect 14 0 16 0;
#X connect 15 0 5 0;
#X connect 16 0 5 0;
#X connect 17 0 14 0;
#X connect 18 0 0 0;
#X connect 18 1 4 0;
#X connect 19 0 17 0;
#X connect 19 1 7 1;
#X coords 0 -1 1 1 143 66 1 255 198;
