#N canvas 711 553 450 300 12;
#X obj 40 70 sel 0 1 -1;
#X obj 40 30 inlet;
#X obj 180 124 f \$1;
#X obj 230 124 f \$2;
#X obj 180 70 loadbang;
#X obj 180 99 t b b;
#X msg 40 100 5;
#X msg 80 100 2;
#X msg 120 100 0;
#X obj 150 242 outlet;
#X obj 150 184 pack f f;
#X msg 150 210 pad \$2 \$1;
#X obj 180 153 expr $f1 + 8*(7-$f2);
#X connect 0 0 6 0;
#X connect 0 1 7 0;
#X connect 0 2 8 0;
#X connect 1 0 0 0;
#X connect 2 0 12 0;
#X connect 3 0 12 1;
#X connect 4 0 5 0;
#X connect 5 0 2 0;
#X connect 5 1 3 0;
#X connect 6 0 10 0;
#X connect 7 0 10 0;
#X connect 8 0 10 0;
#X connect 10 0 11 0;
#X connect 11 0 9 0;
#X connect 12 0 10 1;
