#N canvas 1288 412 450 322 12;
#X obj 30 10 inlet;
#X obj 30 70 sel 0 1 2 3 4 5 6 7;
#X obj 30 99 tgl 15 0 empty empty empty 17 7 0 10 #fcfcfc #000000 #000000
0 1;
#X obj 50 99 tgl 15 0 empty empty empty 17 7 0 10 #fcfcfc #000000 #000000
0 1;
#X obj 70 99 tgl 15 0 empty empty empty 17 7 0 10 #fcfcfc #000000 #000000
0 1;
#X obj 90 99 tgl 15 0 empty empty empty 17 7 0 10 #fcfcfc #000000 #000000
0 1;
#X obj 110 99 tgl 15 0 empty empty empty 17 7 0 10 #fcfcfc #000000
#000000 0 1;
#X obj 130 99 tgl 15 0 empty empty empty 17 7 0 10 #fcfcfc #000000
#000000 0 1;
#X obj 150 99 tgl 15 0 empty empty empty 17 7 0 10 #fcfcfc #000000
#000000 0 1;
#X obj 170 99 tgl 15 0 empty empty empty 17 7 0 10 #fcfcfc #000000
#000000 0 1;
#X obj 30 132 t b f;
#X obj 30 161 symbol \$1;
#X obj 30 39 t f f;
#X obj 30 190 pack s f f;
#X msg 30 219 \$1 \$3 \$2;
#X obj 30 248 t a a;
#X obj 220 90 unpack s f f;
#X obj 220 150 pack s f f;
#X msg 220 179 /strip/\$1/\$2 \$3;
#X obj 260 120 + 1;
#X obj 30 277 outlet;
#X obj 220 208 s oscout;
#X connect 0 0 12 0;
#X connect 1 0 2 0;
#X connect 1 1 3 0;
#X connect 1 2 4 0;
#X connect 1 3 5 0;
#X connect 1 4 6 0;
#X connect 1 5 7 0;
#X connect 1 6 8 0;
#X connect 1 7 9 0;
#X connect 2 0 10 0;
#X connect 3 0 10 0;
#X connect 4 0 10 0;
#X connect 5 0 10 0;
#X connect 6 0 10 0;
#X connect 7 0 10 0;
#X connect 8 0 10 0;
#X connect 9 0 10 0;
#X connect 10 0 11 0;
#X connect 10 1 13 1;
#X connect 11 0 13 0;
#X connect 12 0 1 0;
#X connect 12 1 13 2;
#X connect 13 0 14 0;
#X connect 14 0 15 0;
#X connect 15 0 20 0;
#X connect 15 1 16 0;
#X connect 16 0 17 0;
#X connect 16 1 19 0;
#X connect 16 2 17 2;
#X connect 17 0 18 0;
#X connect 18 0 21 0;
#X connect 19 0 17 1;
