#N canvas 850 355 450 300 12;
#X obj 10 66 tgl 15 0 empty empty empty 17 7 0 10 #fcfcfc #000000 #000000
0 1;
#X obj 10 90 f;
#X obj 100 117 * 127;
#X obj 10 30 inlet;
#X obj 10 230 outlet;
#X obj 100 230 outlet;
#X obj 180 50 f \$1;
#X obj 10 148 pack f f;
#X obj 10 119 t f f b;
#X obj 180 79 t f f;
#X msg 10 178 solo \$2 \$1;
#X obj 212 110 + 57;
#X obj 100 148 pack f f f;
#X obj 260 111 r chan16;
#X obj 260 140 + 16;
#X msg 100 177 ctl \$1 \$2 \$3;
#X connect 0 0 1 0;
#X connect 1 0 8 0;
#X connect 2 0 12 0;
#X connect 3 0 0 0;
#X connect 6 0 9 0;
#X connect 7 0 10 0;
#X connect 8 0 7 0;
#X connect 8 1 2 0;
#X connect 8 2 6 0;
#X connect 9 0 7 1;
#X connect 9 1 11 0;
#X connect 10 0 4 0;
#X connect 11 0 12 1;
#X connect 12 0 15 0;
#X connect 13 0 14 0;
#X connect 14 0 12 2;
#X connect 15 0 5 0;
