#N canvas 331 520 450 344 12;
#X obj 40 80 unpack f f f f f f f f f;
#X obj 40 109 hsl 32 15 0 1 0 0 \$1-p empty empty -2 -8 0 10 #fcfcfc
#000000 #000000 0 1;
#X floatatom 60 135 0 0 0 0 - - -;
#X floatatom 90 135 0 0 0 0 - - -;
#X floatatom 120 135 0 0 0 0 - - -;
#X floatatom 150 135 0 0 0 0 - - -;
#X floatatom 180 135 0 0 0 0 - - -;
#X floatatom 210 135 0 0 0 0 - - -;
#X floatatom 240 135 0 0 0 0 - - -;
#X floatatom 270 135 0 0 0 0 - - -;
#X text 60 165 activation status 0/1 \, -1 = empty slot;
#X text 90 105 progress (0-1);
#X obj 40 20 inlet;
#X obj 60 200 pad \$1 0;
#X obj 90 230 pad \$1 1;
#X obj 120 200 pad \$1 2;
#X obj 150 230 pad \$1 3;
#X obj 180 200 pad \$1 4;
#X obj 210 230 pad \$1 5;
#X obj 240 200 pad \$1 6;
#X obj 270 230 pad \$1 7;
#X obj 270 20 inlet;
#X msg 270 49 -1;
#X obj 270 78 t f f f f f f f f;
#X obj 60 270 outlet;
#X connect 0 0 1 0;
#X connect 0 1 2 0;
#X connect 0 2 3 0;
#X connect 0 3 4 0;
#X connect 0 4 5 0;
#X connect 0 5 6 0;
#X connect 0 6 7 0;
#X connect 0 7 8 0;
#X connect 0 8 9 0;
#X connect 2 0 13 0;
#X connect 3 0 14 0;
#X connect 4 0 15 0;
#X connect 5 0 16 0;
#X connect 6 0 17 0;
#X connect 7 0 18 0;
#X connect 8 0 19 0;
#X connect 9 0 20 0;
#X connect 12 0 0 0;
#X connect 13 0 24 0;
#X connect 14 0 24 0;
#X connect 15 0 24 0;
#X connect 16 0 24 0;
#X connect 17 0 24 0;
#X connect 18 0 24 0;
#X connect 19 0 24 0;
#X connect 20 0 24 0;
#X connect 21 0 22 0;
#X connect 22 0 23 0;
#X connect 23 0 13 0;
#X connect 23 1 14 0;
#X connect 23 2 15 0;
#X connect 23 3 16 0;
#X connect 23 4 17 0;
#X connect 23 5 18 0;
#X connect 23 6 19 0;
#X connect 23 7 20 0;
